<svg xmlns="http://www.w3.org/2000/svg" width="296.918" height="143.767" viewBox="0 0 296.918 143.767"><path fill="#004C9B" d="M0 23.942h281.28v119.825H0z"/><path fill="#FFDC00" d="M257.337 0h39.581v119.824h-39.581z"/><g fill="#FFF"><path d="M44.25 62.724c3.422-.828 7.269-3.835 7.269-9.514 0-6.226-4.256-9.943-11.385-9.943H24.336l-.394.393v32.558l.394.394h5.643l.393-.394V63.614l.41-.461 5.218.016.844.461 9.635 12.531.9.45h2.786l.394-.394v-4.693l-6.308-8.238v-.562zm-4.116-5.038h-9.377l-.385-.377v-8.172l.369-.402h9.394c3.428 0 4.956 1.38 4.956 4.476s-1.529 4.475-4.957 4.475zM58.587 86.064c6.866 0 8.656-4.431 10.435-8.879l7.68-19.198v-4.715l-.393-.393h-4.202l-.413.413-5.865 16.619h-.563l-5.848-16.619-.412-.413h-4.202l-.394.393v4.714L62.1 76.76l-.008.528c-.456 1.736-1.039 3.394-3.506 3.307h-2.83l-.392.394v4.682l.392.394h2.831zM101.366 66.999l.392-.393v-1.86c0-9.113-6.133-12.347-11.385-12.347s-11.385 3.234-11.385 12.347c0 5.695 3.108 12.347 11.867 12.347 8.012 0 9.622-5.264 9.933-7.009l-.382-.382h-5.644l-.42.42c-.474.914-1.838 1.502-3.487 1.502-4.115 0-4.956-3.087-4.956-4.228l.368-.397h15.099zm-15.468-4.875c0-1.182.759-4.257 4.475-4.257 3.716 0 4.476 3.154 4.476 4.242l-.364.383h-8.203l-.384-.368zM112.172 55.052l-.593-1.761-.411-.412h-5.164l-.392.393v22.946l.392.394h5.644l.394-.394V64.745c0-4.544 1.575-6.398 5.436-6.398h3.303l.393-.393v-4.682l-.393-.393h-2.822c-4.411 0-5.339 2.154-5.349 2.172h-.438zM135.906 62.49c-.493-.083-.987-.15-1.465-.217-2.376-.328-4.427-.611-4.427-2.334 0-1.726 1.345-2.072 3.515-2.072 2.383 0 3.471.472 3.513 1.528l.395.395h5.644l.392-.393c-.036-4.317-3.838-6.998-9.942-6.998-6.227 0-9.943 2.64-9.943 7.06 0 4.009 3.03 6.546 9.006 7.542.378.063.74.118 1.083.17 2.318.351 3.849.583 3.849 2.381 0 1.858-2.28 2.072-3.995 2.072-2.055 0-3.958-.303-3.994-2.49l-.394-.394h-5.644l-.393.393c.033 4.911 4.021 7.959 10.424 7.959 5.039 0 10.423-1.981 10.423-7.541-.001-5.72-5.435-6.626-8.047-7.061zM158.542 52.398c-7.208 0-11.867 4.847-11.867 12.347s4.658 12.347 11.867 12.347c7.208 0 11.866-4.847 11.866-12.347s-4.658-12.347-11.866-12.347zm0 19.226c-3.455 0-5.437-2.507-5.437-6.878s1.981-6.878 5.437-6.878c3.455 0 5.436 2.507 5.436 6.878s-1.981 6.878-5.436 6.878zM190.391 76.611h5.643l.394-.394V61.861c0-5.837-3.442-9.463-8.982-9.463-2.476 0-4.804.872-6.351 2.591h-.438l-.553-1.698-.411-.412h-5.163l-.393.393v22.946l.393.394h5.644l.393-.394V64.265c0-4.246 1.829-6.398 5.437-6.398 2.613 0 3.995 1.547 3.995 4.475v13.876l.392.393zM50.558 86.833l-.393-.393h-5.644l-.392.393v20.124c0 5.202-2.314 7.84-6.879 7.84-4.564 0-6.878-2.638-6.878-7.84V86.833l-.393-.393h-5.644l-.393.393v20.124c0 8.582 4.726 13.308 13.308 13.308s13.308-4.726 13.308-13.308V86.833zM82.83 86.44l-.393.393v4.682l.393.393h5.643l.393-.393v-4.682l-.393-.393zM88.473 119.784l.393-.392V96.445l-.393-.392H82.83l-.393.392v22.947l.393.392zM110.416 96.053l-.414.414-5.903 15.225h-.479l-5.891-15.225-.415-.414h-4.201l-.392.392v4.712l8.146 18.21.417.417h5.163l.417-.417 8.146-18.21v-4.712l-.393-.392zM174.091 105.663c-.494-.082-.987-.15-1.466-.217-2.376-.328-4.427-.61-4.427-2.334 0-1.726 1.344-2.072 3.514-2.072 2.384 0 3.472.472 3.514 1.528l.394.394h5.644l.393-.393c-.036-4.317-3.839-6.997-9.943-6.997-6.226 0-9.943 2.639-9.943 7.06 0 4.009 3.031 6.546 9.007 7.542.378.063.74.118 1.083.17 2.317.351 3.847.582 3.847 2.381 0 1.857-2.279 2.072-3.995 2.072-2.056 0-3.959-.303-3.994-2.49l-.393-.394h-5.644l-.392.393c.033 4.911 4.02 7.959 10.422 7.959 5.04 0 10.425-1.98 10.425-7.54 0-5.721-5.434-6.626-8.046-7.062zM192.026 119.784l.394-.392V96.445l-.394-.392h-5.643l-.392.392v22.947l.392.392zM186.383 86.44l-.392.393v4.682l.392.393h5.643l.394-.393v-4.682l-.394-.393zM208.141 119.784h4.264l.392-.393v-4.683l-.392-.393h-4.264c-1.041 0-1.591-.551-1.591-1.592V101.91l.388-.391h5.468l.392-.393v-4.683l-.392-.393h-5.478l-.378-.388v-4.507l-.393-.393h-5.644l-.393.393v4.507l-.396.388h-3.536l-.393.393v4.683l.393.393h3.557l.376.385v10.819c-.001 6.373 5.608 7.061 8.02 7.061zM71.586 119.784h5.644l.393-.393v-14.357c0-5.836-3.442-9.462-8.982-9.462-2.476 0-4.804.872-6.351 2.59h-.438l-.553-1.698-.411-.411h-5.164l-.393.393v22.946l.393.393h5.644l.393-.393v-11.954c0-4.245 1.829-6.397 5.437-6.397 2.613 0 3.995 1.548 3.995 4.476v13.876l.393.391zM139.551 110.172l.393-.393v-1.861c0-9.112-6.133-12.346-11.385-12.346s-11.385 3.233-11.385 12.346c0 5.695 3.107 12.347 11.866 12.347 8.012 0 9.622-5.264 9.933-7.008l-.382-.383h-5.644l-.42.421c-.473.913-1.838 1.502-3.487 1.502-4.115 0-4.956-3.088-4.956-4.228l.368-.397h15.099zm-15.468-4.875c0-1.181.759-4.257 4.475-4.257 3.716 0 4.476 3.154 4.476 4.241l-.364.384h-8.203l-.384-.368zM150.357 98.225l-.593-1.761-.411-.411h-5.164l-.393.393v22.946l.393.393h5.644l.393-.393v-11.474c0-4.544 1.575-6.397 5.437-6.397h3.303l.393-.393v-4.683l-.393-.393h-2.822c-4.411 0-5.339 2.154-5.349 2.172h-.438zM219.886 129.237c6.866 0 8.655-4.431 10.435-8.878L238 101.161v-4.716l-.393-.393h-4.202l-.413.412-5.865 16.619h-.563l-5.848-16.619-.412-.412h-4.202l-.394.393v4.715l7.69 18.773-.008.528c-.548 1.761-1.267 3.308-3.505 3.308h-2.342l-.393.393v4.683l.393.393h2.343z"/></g></svg>