<svg width="560" height="139" viewBox="0 0 560 139" xmlns="http://www.w3.org/2000/svg"><title>SPARQ logo</title><g fill="#F0BE3B" fill-rule="evenodd"><path d="M251.394 84.183h-24.84l20.71-47.974 2.286-5.296 23.286 53.27h-21.442zm7.278-60.92c-1.424-3.508-4.807-5.98-8.766-5.98-3.957 0-7.323 2.477-8.746 5.98h-.004l-.098.22-43.536 98.813h12.526l11.496-26.56h56.302l11.5 26.56h12.819l-43.478-98.995-.015-.037zM18.864 42.918c0-8.851 8.699-13.956 21.96-13.956 3.607 0 7.724.507 11.987 1.587l.006.002.021.004c1.628.414 3.279.904 4.932 1.494v-.032c3.821 1.451 6.724 3.223 6.757 3.244a5.933 5.933 0 0 0 3.144.903 6.014 6.014 0 0 0 5.167-2.948c1.739-2.9.84-6.687-2.01-8.46-.3-.189-7.453-4.59-15.523-6.247-4.475-1.064-9.122-1.7-13.743-1.7-21.367 0-35.67 10.653-35.67 27.159 0 37.664 58.073 22.96 57.927 50.568 0 10.054-9.287 16.205-24.171 16.205-11.646 0-24.762-5.4-34.344-14.854L0 106.69c9.725 9.454 24.466 16.057 39.5 16.057 22.106 0 37.29-11.253 37.29-28.812.145-38.114-57.926-24.006-57.926-51.017M148.728 77.577h-26.532V28.811h26.532c18.57 0 29.331 8.105 29.331 24.01 0 16.355-10.762 24.756-29.331 24.756m.44-60.318h-32.026l-.008.008c-3.694.035-6.676 3.067-6.717 6.823h-.01v98.206h11.79v-33.16h26.97c25.501 0 40.239-13.355 40.239-36.614 0-22.36-14.738-35.263-40.239-35.263M367.277 77.577h-27.413V28.811h27.413c18.72 0 29.332 8.105 29.332 24.01 0 16.355-10.612 24.756-29.332 24.756m40.678-25.055c0-22.36-14.886-35.263-40.678-35.263h-32.473l-.003.008c-3.696.035-6.679 3.067-6.721 6.823h-.006v98.206h11.79v-33.16h27.413c2.357 0 4.717-.151 6.929-.301l21.37 33.46h13.412l-24.173-35.712c14.886-4.952 23.14-16.655 23.14-34.06M485.036 17.515c-30.014 3.43-51.711 30.102-48.468 59.58 2.002 18.182 13.05 33.147 28.248 41.165.47.25.93.495 1.372.716.333.163.667.328 1.002.486 3.397 1.61 5.92 2.393 6.675 2.609l.106.038.003-.006a5.78 5.78 0 0 0 1.62.23c2.604 0 4.982-1.778 5.673-4.463a6.007 6.007 0 0 0-2.435-6.461l.012-.034-.154-.055c-.492-.316-1.022-.583-1.615-.74-.028-.01-.744-.21-1.882-.634-1.901-.798-4.156-1.832-5.763-2.852-.092-.058-.15-.11-.228-.162-11.083-6.437-19.14-17.728-20.648-31.443-2.562-23.251 14.689-43.87 37.822-46.512 23.13-2.638 44.14 13.615 46.702 36.863 2.007 18.227-7.985 34.887-23.536 42.512l.01.019c-2.401 1.032-4.083 3.45-4.083 6.27a6.84 6.84 0 0 0 .741 3.06l-.039.018 9.548 21.226 10.397-4.893-7.692-16.94c18.058-10.489 29.23-30.69 26.838-52.422-3.247-29.48-30.212-50.6-60.226-47.175M545.912 97.387l10.987 4.633 2.871-7.056-10.882-4.588a60.564 60.564 0 0 1-2.976 7.01M422.117 94.963l2.871 7.055 10.621-4.478a59.815 59.815 0 0 1-2.91-7.04l-10.582 4.463zM424.988 38.124l-2.871 7.056 11.34 4.782c.91-2.38 1.95-4.701 3.145-6.94l-11.614-4.898zM522.324 2.924l-6.93-2.922-5.35 13.147c2.408.76 4.75 1.665 7.02 2.705l5.26-12.93zM466.496 0l-6.93 2.922 5.388 13.242a61.622 61.622 0 0 1 6.985-2.783L466.496 0zM559.77 45.18l-2.87-7.056-11.306 4.768a59.6 59.6 0 0 1 3.076 6.97l11.1-4.682z"/></g></svg>